<?xml version="1.0" encoding="UTF-8"?>
<svg width="26px" height="26px" viewBox="0 0 26 26" version="1.1" xmlns="http://www.w3.org/2000/svg" xmlns:xlink="http://www.w3.org/1999/xlink">
    <!-- Generator: Sketch 56.2 (81672) - https://sketch.com -->
    <title>icon/语言</title>
    <desc>Created with Sketch.</desc>
    <g id="icon/语言" stroke="none" stroke-width="1" fill="none" fill-rule="evenodd">
        <path d="M22.0999822,0 L3.90001777,0 C1.69002209,0 0,1.6899967 0,3.90001777 L0,22.0999822 C0,24.3099779 1.6899967,26 3.90001777,26 L22.0999822,26 C24.3099779,26 26,24.3100033 26,22.0999822 L26,3.90001777 C26,1.69002209 24.3100033,0 22.0999822,0 Z" id="路径" fill="#7B70AE" fill-rule="nonzero"></path>
        <g id="语言" transform="translate(4.000000, 4.000000)" fill="#302B3C" fill-rule="nonzero">
            <g id="语言-(2)">
                <path d="M17.9994936,9.00171555 C17.9994936,4.04014337 13.974362,0.0179824428 9.00909837,0.0179824428 C4.04374689,0.0179824428 0.0185273653,4.04016095 0.0185273653,9.00171555 C0.0185273653,13.585006 3.45313878,17.3663464 7.89067129,17.9165775 C8.14084346,17.9693119 8.44552545,18.0000209 8.80842627,18.0000209 C8.9103092,18.0000209 9.00855345,17.9946596 9.1034227,17.9849565 C14.0252331,17.9343666 17.9994936,13.9319986 17.9994936,9.00171555 Z M16.7139511,9.12882312 C16.6880936,8.68058041 16.6288729,8.2418299 16.538697,7.81541925 C16.5467126,7.66315735 16.5488923,7.51891109 16.5448142,7.38480742 C16.6563124,7.90617522 16.7151112,8.44708991 16.7151112,9.00171555 L16.7151112,9.00181085 C16.7150753,9.0441733 16.7146882,9.08653488 16.7139499,9.12889082 L16.7139511,9.12882312 Z M1.30290972,9.00173313 C1.30290972,8.45719734 1.35961682,7.92593305 1.46719507,7.41333675 C1.79998452,7.76925904 2.58435652,7.76085669 2.7756419,7.22906505 C3.11790597,7.43305943 3.57785573,7.47020205 3.57785573,7.87792714 C3.57785573,9.22353417 3.62577375,10.6661374 4.84840408,10.6884265 C4.88282209,10.6888835 5.53022519,10.9337823 5.83833492,11.7328496 C5.94485848,12.0090374 6.36625936,11.7328496 6.82837123,11.7328496 C7.05906681,11.7328496 6.82837123,12.1215024 6.82837123,12.9619487 C6.82837123,13.7991254 8.6332952,15.0882012 8.6332952,15.0882012 C8.62494558,15.6423522 8.64770928,16.0904543 8.69381676,16.4484508 C8.28640808,16.4409449 7.94305416,16.494945 7.67331752,16.5867556 C4.05401253,15.9547158 1.30290972,12.7994036 1.30290972,9.00171555 L1.30290972,9.00173313 Z M10.9062197,16.4669254 C10.8662646,16.2713334 10.6915027,16.1642297 10.3726175,16.2480423 C10.6270436,15.1645255 10.750741,14.5575521 11.2818998,14.0967059 C12.0504164,13.4305117 11.3734117,12.6896808 10.7886044,12.7769914 C10.3276702,12.8465833 10.6189577,12.2062818 10.2075412,12.1708618 C9.79614226,12.1364438 9.25884866,11.3181108 8.66676399,11.0365441 C8.3529062,10.8874814 8.04444491,10.4880356 7.56039552,10.4701411 C7.13136572,10.4535122 6.50437085,10.8329189 6.50437085,10.5404537 C6.50437085,9.59842328 6.40897425,8.92621742 6.38937462,8.65776398 C6.37355429,8.44208014 6.2483979,8.58511351 6.82837123,8.59905297 C7.14402198,8.60750806 6.98984407,7.96504442 7.30227803,7.93996041 C7.60912214,7.91566741 8.34030267,8.22718731 8.52659586,8.10303287 C8.69967028,7.9874214 9.79874382,10.9880811 9.79874382,8.5990354 C9.79874382,8.31557022 9.65194873,7.82271418 9.79874382,7.55424317 C10.37935,6.49336693 10.9229014,5.62875069 10.8740869,5.50227593 C10.8464013,5.43106687 10.2800862,5.37226797 9.82695675,5.52430135 C9.67404446,5.57536586 9.87561305,5.81486809 9.65597413,5.8660205 C8.83307083,6.05600509 8.10602115,5.64414915 8.36062301,5.25702565 C8.62132449,4.86028691 9.56595644,5.08395123 9.64878467,4.28803038 C9.69642144,3.8321236 9.73590195,3.30411127 9.76233948,2.91167917 C10.869833,3.08487664 10.7479109,1.47436695 9.10115512,1.30197808 C12.4326707,1.34094883 15.2557736,3.49249625 16.291724,6.4785134 C16.2393412,6.43071842 16.1783626,6.40167932 16.1079621,6.39457775 C15.6100787,5.15092396 14.4015812,6.05096017 14.8115387,7.14788918 C12.6149737,8.83641067 13.1772458,10.0140585 13.8989166,10.6884265 C14.2786572,11.042925 14.6407143,11.5760701 14.8764372,11.9589749 C14.6198666,12.7071007 15.8218251,12.407534 16.4145953,11.1378997 C15.6605807,13.7528773 13.5571447,15.7963016 10.9062197,16.4669254 L10.9062197,16.4669254 Z" id="形状"></path>
            </g>
        </g>
    </g>
</svg>